<svg width="48" height="48" viewBox="0 0 48 48" fill="none" xmlns="http://www.w3.org/2000/svg">
<path d="M26.286 42.828L6 22.542V6H22.542L42.828 26.286L26.286 42.828ZM26.286 37.172L37.172 26.286L20.886 10H10V20.886L26.286 37.172Z" fill="#5D6D81"/>
<path d="M17.1407 22.1897C16.4694 22.2031 15.8023 22.0824 15.1782 21.8348C14.5542 21.5872 13.9858 21.2175 13.5064 20.7476C13.027 20.2776 12.6461 19.7167 12.3861 19.0977C12.1261 18.4787 11.9922 17.8141 11.9922 17.1427C11.9922 16.4714 12.1261 15.8067 12.3861 15.1878C12.6461 14.5688 13.027 14.0079 13.5064 13.5379C13.9858 13.0679 14.5542 12.6983 15.1782 12.4507C15.8023 12.203 16.4694 12.0824 17.1407 12.0957C18.4618 12.122 19.72 12.6653 20.645 13.609C21.57 14.5526 22.0882 15.8213 22.0882 17.1427C22.0882 18.4641 21.57 19.7329 20.645 20.6765C19.72 21.6201 18.4618 22.1634 17.1407 22.1897ZM17.1407 18.1897C17.282 18.1959 17.4231 18.1734 17.5555 18.1236C17.688 18.0737 17.8089 17.9976 17.9111 17.8998C18.0133 17.802 18.0947 17.6844 18.1502 17.5543C18.2058 17.4242 18.2344 17.2842 18.2344 17.1427C18.2344 17.0012 18.2058 16.8612 18.1502 16.7311C18.0947 16.601 18.0133 16.4835 17.9111 16.3857C17.8089 16.2878 17.688 16.2117 17.5555 16.1619C17.4231 16.1121 17.282 16.0895 17.1407 16.0957C16.8709 16.1075 16.6161 16.223 16.4294 16.418C16.2427 16.6131 16.1384 16.8727 16.1384 17.1427C16.1384 17.4127 16.2427 17.6724 16.4294 17.8674C16.6161 18.0625 16.8709 18.1779 17.1407 18.1897ZM23.4567 21.7137L26.2847 18.8857L33.6847 26.2857L30.8567 29.1137L23.4567 21.7137ZM18.8847 26.2857L21.7127 23.4577L29.1127 30.8577L26.2847 33.6857L18.8847 26.2857Z" fill="#5D6D81"/>
<path d="M15.1406 18.1904H19.1406V42.0004H15.1406V18.1904Z" fill="#5D6D81"/>
</svg>
