<svg width="62" height="52" viewBox="0 0 62 52" fill="none" xmlns="http://www.w3.org/2000/svg">
<rect x="0.193359" width="61.8003" height="51.7084" rx="25.8542" fill="url(#paint0_radial_637_872)"/>
<path d="M31.0936 15.264C35.1888 15.264 35.7473 15.264 37.4226 15.264C38.9118 15.264 39.6563 15.5755 40.2148 15.7312C40.9594 16.0427 41.5178 16.1984 42.0762 16.6657C42.6347 17.1329 43.007 17.6002 43.1931 18.2232C43.3793 18.6904 43.5654 19.3134 43.7515 20.5594C43.7515 21.9611 43.7515 22.2726 43.7515 25.8548C43.7515 29.437 43.7515 29.7485 43.7515 31.1503C43.7515 32.3963 43.3793 33.0192 43.1931 33.4865C42.8208 34.1095 42.6347 34.5767 42.0762 35.044C41.5178 35.5112 40.9594 35.8227 40.2148 35.9785C39.6563 36.1342 38.9118 36.29 37.4226 36.4457C35.7473 36.4457 35.375 36.4457 31.0936 36.4457C26.8123 36.4457 26.44 36.4457 24.7647 36.4457C23.2755 36.4457 22.5309 36.1342 21.9725 35.9785C21.2279 35.667 20.6695 35.5112 20.1111 35.044C19.5526 34.5767 19.1803 34.1095 18.9942 33.4865C18.808 33.0192 18.6219 32.3963 18.4357 31.1503C18.4357 29.7485 18.4357 29.437 18.4357 25.8548C18.4357 22.2726 18.4357 21.9611 18.4357 20.5594C18.4357 19.3134 18.808 18.6904 18.9942 18.2232C19.3665 17.6002 19.5526 17.1329 20.1111 16.6657C20.6695 16.1984 21.2279 15.8869 21.9725 15.7312C22.5309 15.5755 23.2755 15.4197 24.7647 15.264C26.44 15.264 26.9984 15.264 31.0936 15.264ZM31.0936 12.9277C26.8123 12.9277 26.44 12.9277 24.7647 12.9277C23.0894 12.9277 21.9725 13.2392 21.0418 13.5507C20.1111 13.8622 19.1803 14.3295 18.2496 15.1082C17.3189 15.887 16.9466 16.5099 16.3881 17.4444C16.0158 18.2232 15.8297 19.1577 15.6436 20.5594C15.6436 21.9611 15.6436 22.4284 15.6436 25.8548C15.6436 29.437 15.6436 29.7485 15.6436 31.1503C15.6436 32.552 16.0158 33.4865 16.3881 34.2652C16.7604 35.044 17.3189 35.8227 18.2496 36.6015C19.1803 37.3802 19.9249 37.6917 21.0418 38.1589C21.9725 38.4704 23.0894 38.6262 24.7647 38.7819C26.44 38.7819 26.9984 38.7819 31.0936 38.7819C35.1888 38.7819 35.7473 38.7819 37.4226 38.7819C39.0979 38.7819 40.2148 38.4704 41.1455 38.1589C42.0762 37.8474 43.007 37.3802 43.9377 36.6015C44.8684 35.8227 45.2407 35.1997 45.7991 34.2652C46.1714 33.4865 46.3576 32.552 46.5437 31.1503C46.5437 29.7485 46.5437 29.2813 46.5437 25.8548C46.5437 22.4284 46.5437 21.9611 46.5437 20.5594C46.5437 19.1577 46.1714 18.2232 45.7991 17.4444C45.4269 16.6657 44.8684 15.887 43.9377 15.1082C43.007 14.3295 42.2624 14.018 41.1455 13.5507C40.2148 13.2392 39.0979 13.0835 37.4226 12.9277C35.7473 12.9277 35.375 12.9277 31.0936 12.9277Z" fill="white"/>
<path d="M31.0936 19.1577C26.6261 19.1577 23.0894 22.1169 23.0894 25.8548C23.0894 29.5928 26.6261 32.552 31.0936 32.552C35.5611 32.552 39.0979 29.5928 39.0979 25.8548C39.0979 22.1169 35.5611 19.1577 31.0936 19.1577ZM31.0936 30.2158C28.3015 30.2158 25.8816 28.3468 25.8816 25.8548C25.8816 23.5186 28.1153 21.4939 31.0936 21.4939C33.8858 21.4939 36.3057 23.3629 36.3057 25.8548C36.3057 28.1911 33.8858 30.2158 31.0936 30.2158Z" fill="white"/>
<path d="M39.284 20.5594C40.3121 20.5594 41.1455 19.8621 41.1455 19.0019C41.1455 18.1417 40.3121 17.4444 39.284 17.4444C38.256 17.4444 37.4226 18.1417 37.4226 19.0019C37.4226 19.8621 38.256 20.5594 39.284 20.5594Z" fill="white"/>
<defs>
<radialGradient id="paint0_radial_637_872" cx="0" cy="0" r="1" gradientUnits="userSpaceOnUse" gradientTransform="translate(63.237 1.05033) scale(142.715 119.41)">
<stop stop-color="#F9ED32"/>
<stop offset="0.36" stop-color="#EE2A7B"/>
<stop offset="0.44" stop-color="#D22A8A"/>
<stop offset="0.6" stop-color="#8B2AB2"/>
<stop offset="0.83" stop-color="#1B2AF0"/>
<stop offset="0.88" stop-color="#002AFF"/>
</radialGradient>
</defs>
</svg>
