<svg width="63" height="52" viewBox="0 0 63 52" fill="none" xmlns="http://www.w3.org/2000/svg">
<rect x="0.580078" width="61.8003" height="51.7084" rx="25.8542" fill="#2878B7"/>
<path d="M43.8404 26.8157V33.9459H38.852V27.2504C38.852 25.5983 38.1246 24.4679 36.3579 24.4679C35.0068 24.4679 34.1754 25.2505 33.8637 25.9461C33.7597 26.207 33.6558 26.5548 33.6558 26.9896V33.9459H28.6675C28.6675 33.9459 28.7714 22.6419 28.6675 21.5115H33.6558V23.2506C34.2794 22.3811 35.5265 21.1637 38.1246 21.1637C41.3462 21.1637 43.8404 22.9897 43.8404 26.8157ZM23.4712 15.5117C21.8084 15.5117 20.6653 16.4682 20.6653 17.6856C20.6653 18.9029 21.7045 19.8594 23.3673 19.8594C25.134 19.8594 26.1733 18.9029 26.1733 17.6856C26.2772 16.3813 25.2379 15.5117 23.4712 15.5117ZM20.9771 33.9459H25.9654V21.5115H20.9771V33.9459Z" fill="white"/>
</svg>
