<svg width="62" height="52" viewBox="0 0 62 52" fill="none" xmlns="http://www.w3.org/2000/svg">
<rect width="61.8003" height="51.7084" rx="25.8542" fill="#48C95F"/>
<path d="M43.1473 15.5937C40.095 13.0487 36.0252 11.6348 31.7293 11.6348C22.7984 11.6348 15.5632 17.6674 15.5632 25.114C15.5632 27.4705 16.3546 29.827 17.7112 31.8064L15.4502 38.7817L24.042 36.8965C26.416 37.9333 29.0161 38.4989 31.7293 38.4989C40.6602 38.4989 47.8954 32.4662 47.8954 25.0197C47.7823 21.5321 46.1996 18.1387 43.1473 15.5937ZM39.5297 29.9212C39.1906 30.6753 37.6079 31.4294 36.8165 31.5236C36.1382 31.6179 35.2338 31.6179 34.3294 31.4294C33.7642 31.2409 32.9729 31.0523 32.0685 30.6753C27.9987 29.2614 25.3985 25.868 25.1724 25.5853C24.9463 25.3967 23.4767 23.7943 23.4767 22.0976C23.4767 20.401 24.4941 19.6469 24.8333 19.2698C25.1724 18.8928 25.6246 18.8928 25.9638 18.8928C26.1899 18.8928 26.529 18.8928 26.7551 18.8928C26.9812 18.8928 27.3204 18.7985 27.6595 19.4584C27.9987 20.1182 28.79 21.8149 28.9031 21.9091C29.0161 22.0976 29.0161 22.2862 28.9031 22.4747C28.79 22.6632 28.677 22.8517 28.4509 23.0402C28.2248 23.2288 27.9987 23.5115 27.8856 23.6058C27.6595 23.7943 27.4334 23.9828 27.6595 24.2656C27.8856 24.6427 28.677 25.6795 29.9205 26.6221C31.5032 27.7532 32.7468 28.1303 33.199 28.3188C33.6512 28.5073 33.8772 28.4131 34.1033 28.2245C34.3294 28.036 35.1208 27.2819 35.3469 26.9049C35.573 26.5279 35.9121 26.6221 36.2513 26.7164C36.5904 26.8106 38.6253 27.659 38.9645 27.8475C39.4167 28.036 39.6428 28.1303 39.7558 28.2245C39.8689 28.5073 39.8689 29.1671 39.5297 29.9212Z" fill="white"/>
</svg>
